<svg xmlns="http://www.w3.org/2000/svg" viewBox="0 0 100 100" role="img" aria-label="ChemLab logo">
  <!-- Flask neck rim -->
  <rect x="36" y="4" width="28" height="6" rx="3" fill="#0f172a"/>
  <!-- Flask neck and body (blue) -->
  <path d="M36 10 L36 42 L11 78 Q7 87 12 93 Q17 99 25 99 L75 99 Q83 99 88 93 Q93 87 89 78 L64 42 L64 10 Z" fill="#1e3a8a"/>
  <!-- Liquid (amber/yellow) -->
  <path d="M21 79 Q28 69 50 69 Q72 69 79 79 L89 93 Q84 98 75 98 L25 98 Q16 98 11 93 Z" fill="#f59e0b"/>
  <!-- Bubble 1 -->
  <circle cx="38" cy="83" r="3.5" fill="rgba(255,255,255,0.55)"/>
  <!-- Bubble 2 -->
  <circle cx="56" cy="77" r="2.5" fill="rgba(255,255,255,0.55)"/>
  <!-- Bubble 3 -->
  <circle cx="67" cy="85" r="4" fill="rgba(255,255,255,0.4)"/>
</svg>
